<?xml version="1.0" encoding="UTF-8" standalone="no"?>
<!-- Created with Inkscape (http://www.inkscape.org/) -->

<svg
   xmlns:dc="http://purl.org/dc/elements/1.1/"
   xmlns:cc="http://creativecommons.org/ns#"
   xmlns:rdf="http://www.w3.org/1999/02/22-rdf-syntax-ns#"
   xmlns:svg="http://www.w3.org/2000/svg"
   xmlns="http://www.w3.org/2000/svg"
   xmlns:sodipodi="http://sodipodi.sourceforge.net/DTD/sodipodi-0.dtd"
   xmlns:inkscape="http://www.inkscape.org/namespaces/inkscape"
   width="1000"
   height="587.43591"
   id="svg17830"
   version="1.1"
   inkscape:version="0.48.5 r10040"
   sodipodi:docname="New document 2">
  <defs
     id="defs17832" />
  <sodipodi:namedview
     id="base"
     pagecolor="#ffffff"
     bordercolor="#666666"
     borderopacity="1.0"
     inkscape:pageopacity="0.0"
     inkscape:pageshadow="2"
     inkscape:zoom="0.071948242"
     inkscape:cx="1947.3234"
     inkscape:cy="-1516.3354"
     inkscape:document-units="px"
     inkscape:current-layer="layer1"
     showgrid="false"
     fit-margin-top="0"
     fit-margin-left="0"
     fit-margin-right="0"
     fit-margin-bottom="0"
     inkscape:window-width="1025"
     inkscape:window-height="1039"
     inkscape:window-x="889"
     inkscape:window-y="-21"
     inkscape:window-maximized="0">
    <inkscape:grid
       type="xygrid"
       id="grid17860"
       empspacing="5"
       visible="true"
       enabled="true"
       snapvisiblegridlinesonly="true"
       originx="127.84375px"
       originy="1389px" />
  </sodipodi:namedview>
  <metadata
     id="metadata17835">
    <rdf:RDF>
      <cc:Work
         rdf:about="">
        <dc:format>image/svg+xml</dc:format>
        <dc:type
           rdf:resource="http://purl.org/dc/dcmitype/StillImage" />
        <dc:title></dc:title>
      </cc:Work>
    </rdf:RDF>
  </metadata>
  <g
     inkscape:label="Layer 1"
     inkscape:groupmode="layer"
     id="layer1"
     transform="translate(127.84375,-1853.9263)">
    <path
       style="fill:#000000;fill-opacity:1;stroke:none"
       d="m -91.16963,2337.0594 c -22.61802,0 -36.67412,18.2573 -36.67412,38.3588 0,23.154 16.75985,39.5252 37.062892,39.5252 14.961718,0 24.233429,-10.8856 24.233429,-10.8856 l 0,8.2938 23.758264,0 0,-72.5707 -23.758264,0 0,8.985 c 0,0 -8.0767,-11.7065 -24.622201,-11.7065 z m 6.997889,20.0434 c 10.745648,0 18.315461,10.6581 18.315461,18.7043 0,11.0193 -8.587346,18.5315 -18.315461,18.5315 -9.258542,0 -18.833829,-6.2611 -18.833829,-18.402 0,-9.6128 7.927255,-18.8338 18.833829,-18.8338 z"
       id="path17862"
       inkscape:connector-curvature="0" />
    <path
       style="fill:#000000;fill-opacity:1;stroke:none"
       d="m -25.769609,2412.3339 0,-72.5707 23.9137725,0 0,9.5183 c 0,0 7.9484985,-12.2849 25.5140875,-12.2849 19.849141,0 26.598584,12.5825 26.598584,28.3392 l 0,46.9981 -23.913772,0 0,-38.7044 c 0,-12.2343 -4.722373,-17.2705 -12.59121,-17.2705 -9.0103303,0 -15.6076895,7.7895 -15.6076895,20.0351 l 0,35.9398 z"
       id="path17866"
       inkscape:connector-curvature="0"
       sodipodi:nodetypes="ccccccccccccc" />
    <path
       style="fill:#000000;fill-opacity:1;stroke:none"
       d="m 65.876814,2412.3339 0,-72.5707 24.190232,0 0,72.5707 z"
       id="path17869"
       inkscape:connector-curvature="0"
       sodipodi:nodetypes="ccccc" />
    <path
       sodipodi:type="arc"
       style="fill:#000000;fill-opacity:1;stroke:none"
       id="path17871"
       sodipodi:cx="21.460342"
       sodipodi:cy="2348.3904"
       sodipodi:rx="10.173508"
       sodipodi:ry="10.173508"
       d="m 31.63385,2348.3904 c 0,5.6187 -4.554834,10.1735 -10.173508,10.1735 -5.618673,0 -10.173507,-4.5548 -10.173507,-10.1735 0,-5.6187 4.554834,-10.1735 10.173507,-10.1735 5.618674,0 10.173508,4.5548 10.173508,10.1735 z"
       transform="matrix(1.382299,0,0,1.382299,48.503065,-933.3303)" />
    <path
       sodipodi:nodetypes="cccccccccccccccccccc"
       inkscape:connector-curvature="0"
       id="path17873"
       d="m 182.95754,2377.7764 0,34.5575 -23.91377,0 0,-38.7044 c 0,-12.2343 -4.72238,-17.2705 -12.59121,-17.2705 -9.01033,0 -15.60769,7.7895 -15.60769,20.0351 l 0,35.9398 -23.91378,0 0,-72.5707 23.91378,0 0,9.5183 c 0,0 7.94849,-12.2849 25.51408,-12.2849 12.17521,0 19.42173,4.7341 23.20511,12.0309 0,0 7.81124,-12.106 27.88789,-12.106 18.83075,0 28.03295,11.4566 28.03295,27.032 l 0,48.3804 -23.91377,0 0,-38.7044 c 0,-9.4383 -3.71564,-17.4957 -12.59966,-17.4957 -9.07989,0 -16.01393,8.1865 -16.01393,21.6426 z"
       style="fill:#000000;fill-opacity:1;stroke:none" />
    <path
       id="path17877"
       d="m 281.56519,2337.0594 c -22.61802,0 -36.67412,18.2573 -36.67412,38.3588 0,23.154 16.75985,39.5252 37.06289,39.5252 14.96173,0 24.23343,-10.8856 24.23343,-10.8856 l 0,8.2938 23.75827,0 0,-72.5707 -23.75827,0 0,8.985 c 0,0 -8.07669,-11.7065 -24.6222,-11.7065 z m 6.99789,20.0434 c 10.74565,0 18.31546,10.6581 18.31546,18.7043 0,11.0193 -8.58734,18.5315 -18.31546,18.5315 -9.25854,0 -18.83382,-6.2611 -18.83382,-18.402 0,-9.6128 7.92725,-18.8338 18.83382,-18.8338 z"
       style="fill:#000000;fill-opacity:1;stroke:none"
       inkscape:connector-curvature="0" />
    <path
       sodipodi:nodetypes="ccccc"
       inkscape:connector-curvature="0"
       id="path17879"
       d="m 346.92113,2412.3339 0,-101.6002 24.19023,0 0,101.6002 z"
       style="fill:#000000;fill-opacity:1;stroke:none" />
    <path
       inkscape:connector-curvature="0"
       style="fill:#000000;fill-opacity:1;stroke:none"
       d="m 584.73857,2337.0594 c -22.61802,0 -36.67412,18.2573 -36.67412,38.3588 0,23.154 16.75985,39.5252 37.06289,39.5252 14.96173,0 24.23343,-10.8856 24.23343,-10.8856 l 0,8.2938 23.75826,0 0,-72.5707 -23.75826,0 0,8.985 c 0,0 -8.07669,-11.7065 -24.6222,-11.7065 z m 6.99789,20.0434 c 10.74564,0 18.31546,10.6581 18.31546,18.7043 0,11.0193 -8.58734,18.5315 -18.31546,18.5315 -9.25855,0 -18.83383,-6.2611 -18.83383,-18.402 0,-9.6128 7.92725,-18.8338 18.83383,-18.8338 z"
       id="path17881" />
    <path
       style="fill:#000000;fill-opacity:1;stroke:none"
       d="m 513.71161,2412.3339 0,-101.6002 24.19023,0 0,101.6002 z"
       id="path17883"
       inkscape:connector-curvature="0"
       sodipodi:nodetypes="ccccc" />
    <path
       id="path17885"
       d="m 467.45195,2337.0594 c 22.61802,0 36.67412,18.2573 36.67412,38.3588 0,23.154 -16.75985,39.5252 -37.06289,39.5252 -14.96173,0 -24.23343,-10.8856 -24.23343,-10.8856 l 0,37.3044 -23.75827,0 0,-101.5813 23.75827,0 0,8.985 c 0,0 8.07669,-11.7065 24.6222,-11.7065 z m -6.99789,20.0434 c -10.74565,0 -18.31546,10.6581 -18.31546,18.7043 0,11.0193 8.58734,18.5315 18.31546,18.5315 9.25854,0 18.83382,-6.2611 18.83382,-18.402 0,-9.6128 -7.92725,-18.8338 -18.83382,-18.8338 z"
       style="fill:#000000;fill-opacity:1;stroke:none"
       inkscape:connector-curvature="0"
       sodipodi:nodetypes="sssccccccssssss" />
    <path
       sodipodi:nodetypes="ccccccccccccc"
       inkscape:connector-curvature="0"
       id="path17887"
       d="m 650.1746,2412.3339 0,-72.5707 23.91377,0 0,9.5183 c 0,0 7.9485,-12.2849 25.51409,-12.2849 19.84913,0 26.59858,12.5825 26.59858,28.3392 l 0,46.9981 -23.91377,0 0,-38.7044 c 0,-12.2343 -4.72238,-17.2705 -12.59121,-17.2705 -9.01034,0 -15.60769,7.7895 -15.60769,20.0351 l 0,35.9398 z"
       style="fill:#000000;fill-opacity:1;stroke:none" />
    <path
       style="fill:#000000;fill-opacity:1;stroke:none"
       d="m 774.7111,2337.0594 c -22.62939,0 -38.92036,14.632 -38.92036,38.9205 0,23.7551 16.46101,38.8771 43.32643,38.8771 13.25552,0 26.35008,-5.918 26.35008,-5.918 l -5.31321,-17.1922 c 0,0 -8.93379,4.5787 -19.09301,4.5787 -12.76355,0 -18.7068,-7.1772 -20.30251,-13.6933 l 52.52736,0 c 0.74294,-24.7954 -9.51177,-45.5728 -38.57478,-45.5728 z m 1.03672,17.4516 c 8.38721,0 14.43825,5.8794 15.52253,13.607 l -30.90061,0 c 0.86354,-8.3045 8.51274,-13.607 15.37808,-13.607 z"
       id="path17889"
       inkscape:connector-curvature="0"
       sodipodi:nodetypes="sssccsccssccs" />
    <path
       style="fill:#000000;fill-opacity:1;stroke:none"
       d="m 853.37255,2322.4845 0,17.2787 16.58759,0 0,18.6611 -16.58759,0 0,29.0282 c 0,5.9336 2.41734,8.8322 9.47769,8.8322 3.16465,0 7.24861,-1.0634 7.24861,-1.0634 l 2.0574,17.2739 c 0,0 -5.31712,2.1584 -15.08475,2.1584 -18.22295,0 -27.88918,-8.9819 -27.88918,-25.8188 l 0,-30.4105 -10.78194,0 0,-18.6611 10.78194,0 0,-17.2787 z"
       id="path17893"
       inkscape:connector-curvature="0"
       sodipodi:nodetypes="ccccccccccccccccc" />
    <path
       style="fill:#0074ff;fill-opacity:1;stroke:none"
       d="m 432.02618,1853.9263 0,115.16 c 0,0 17.88398,14.6373 26.39083,26.3909 -43.81077,-28.5832 -90.3559,-40.5889 -146.95315,-40.5889 -93.16725,0 -177.99618,43.1656 -219.876171,114.6129 l 5.405651,10.1601 c 0,0 18.22324,-21.9095 60.32839,-43.3983 -45.98998,45.3681 -65.252519,81.5594 -93.52928,165.0073 l 44.85532,44.671 c 58.68935,-65.6655 145.03706,-109.0527 242.51352,-109.0527 92.23502,0 177.16582,41.28 230.26348,96.1581 l 48.31847,-48.4637 c -27.08687,-46.3562 -62.2598,-89.1099 -90.21734,-118.7932 28.92599,16.5189 75.10788,25.967 119.22136,25.967 77.17423,0 133.88198,-41.5531 133.88198,-98.1301 0,-69.6951 -59.75522,-112.1098 -157.21984,-128.2377 l -15.76105,26.4422 c 49.04925,8.747 125.35559,37.295 125.35559,88.294 0,27.9757 -21.64166,51.4409 -52.82244,51.4409 -38.53671,0 -70.54035,-42.975 -89.98755,-80.9242 l -29.76365,-0.7164 c -34.16006,-42.2714 -89.38476,-83.522 -140.40412,-95.9992 z"
       id="path17895"
       inkscape:connector-curvature="0"
       sodipodi:nodetypes="cccccccccccccccccccccc" />
  </g>
</svg>
